<?xml version="1.0" encoding="UTF-8"?>
<svg id="Layer_1" data-name="Layer 1" xmlns="http://www.w3.org/2000/svg" viewBox="0 0 58 58">
  <defs>
    <style>
      .cls-1 {
        fill: #eaf4ff;
      }

      .cls-2 {
        fill: #fff;
      }

      .cls-3 {
        fill: #0040ff;
      }
    </style>
  </defs>
  <circle class="cls-1" cx="29" cy="29" r="28.4"/>
  <g>
    <path class="cls-3" d="M42.5,12.96H15.5c-2.15,0-3.9,1.74-3.9,3.9v24.29c0,2.15,1.74,3.9,3.9,3.9h26.99c2.15,0,3.9-1.74,3.9-3.9v-24.29c0-2.15-1.74-3.9-3.9-3.9ZM31.45,20.9l-2.95-2.95-2.95,2.95-.08-7.36h6.05l-.08,7.36Z"/>
    <path class="cls-2" d="M31.25,30.77c-1.24,1.24-3.25,1.24-4.5,0-1.23-1.24-1.23-3.25,0-4.5,1.24-1.25,3.25-1.24,4.5,0,1.25,1.24,1.25,3.25,0,4.5M25.24,24.75c-2.08,2.08-2.08,5.44,0,7.51l3.76,3.76,3.76-3.76c2.08-2.08,2.08-5.44,0-7.51-2.08-2.08-5.44-2.08-7.52,0"/>
  </g>
</svg>