<?xml version="1.0" encoding="UTF-8"?>
<svg id="Layer_1" data-name="Layer 1" xmlns="http://www.w3.org/2000/svg" viewBox="0 0 58 58">
  <defs>
    <style>
      .cls-1 {
        fill: #eaf4ff;
      }

      .cls-2 {
        fill: #0040ff;
      }
    </style>
  </defs>
  <circle class="cls-1" cx="29" cy="29" r="28.4"/>
  <g>
    <g>
      <g>
        <path class="cls-2" d="M6.69,33.89c-.3,0-.6-.07-.87-.21l-2.07-1.03c-.47-.23-.82-.64-.99-1.13-.17-.5-.13-1.03.1-1.5l5.88-11.8c.23-.47.64-.82,1.13-.99.5-.17,1.03-.13,1.5.1l2.07,1.03c.47.23.82.64.99,1.13.17.5.13,1.03-.1,1.5l-5.88,11.8c-.23.47-.64.82-1.13.99-.2.07-.42.1-.63.1ZM10.5,18.48c-.06,0-.13.01-.19.03-.15.05-.28.16-.35.3l-5.88,11.8c-.07.14-.08.31-.03.46.05.15.16.28.3.35h0l2.07,1.03c.14.07.31.08.46.03.15-.05.28-.16.35-.3l5.88-11.8c.07-.14.08-.31.03-.46-.05-.15-.16-.28-.3-.35l-2.08-1.03c-.08-.04-.18-.06-.27-.06Z"/>
        <path class="cls-2" d="M38.81,36.98c-.4,0-.79-.09-1.15-.27l-8.49-4.23c-.34-.17-.47-.58-.31-.91.17-.34.58-.47.91-.31l8.49,4.23c.61.3,1.35.05,1.65-.55.3-.61.05-1.35-.55-1.65l-9.27-4.62c-.34-.17-.47-.58-.31-.91.17-.34.58-.47.91-.31l9.27,4.62c.62.31,1.08.84,1.3,1.49.22.66.17,1.36-.14,1.98-.31.62-.84,1.08-1.49,1.3-.27.09-.55.14-.82.14Z"/>
        <path class="cls-2" d="M16.57,22.71c-.99,0-2.03-.14-2.89-.57-.34-.17-.47-.57-.31-.91.17-.34.58-.47.91-.31,1.14.57,2.8.47,4,.29,1.47-.23,2.84-.34,4.17-.33.38,0,.68.31.68.68,0,.37-.31.68-.68.68-.03,0-.07,0-.1,0-1.23,0-2.49.1-3.86.31-.57.09-1.23.15-1.92.15Z"/>
        <path class="cls-2" d="M38.78,41.23c-.4,0-.79-.09-1.15-.27l-10.15-5.06c-.34-.17-.47-.58-.31-.91.17-.34.58-.47.91-.31l10.15,5.06c.29.15.63.17.94.07.31-.1.56-.32.71-.62s.17-.63.07-.94c-.1-.31-.32-.56-.62-.71l-10.15-5.06c-.34-.17-.47-.58-.31-.91.17-.34.58-.47.91-.31l10.15,5.06c.62.31,1.08.84,1.3,1.49.22.66.17,1.36-.14,1.98-.31.62-.84,1.08-1.49,1.3-.27.09-.55.14-.82.14Z"/>
        <path class="cls-2" d="M37.07,44.65c-.4,0-.79-.09-1.15-.27l-7.07-3.4c-.34-.16-.48-.57-.32-.91.16-.34.57-.48.91-.32l7.08,3.41c.3.15.64.17.95.07.31-.1.56-.32.71-.62.15-.29.17-.63.07-.94-.1-.31-.32-.56-.62-.71l-10.15-5.06c-.34-.17-.47-.58-.31-.91.17-.34.58-.47.91-.31l10.15,5.06c.62.31,1.08.84,1.3,1.49s.17,1.36-.14,1.98c-.31.62-.84,1.08-1.49,1.3-.27.09-.55.14-.82.14Z"/>
        <path class="cls-2" d="M32.34,46.56c-.4,0-.79-.09-1.15-.27l-.32-.16c-.34-.17-.47-.58-.31-.91.17-.34.58-.47.91-.31l.32.16c.29.15.63.17.94.07.31-.1.56-.32.71-.62s.17-.63.07-.94c-.1-.31-.32-.56-.62-.71l-4.03-1.89c-.34-.16-.49-.56-.33-.9.16-.34.56-.49.9-.33l4.05,1.9c.63.32,1.1.85,1.32,1.5.22.66.17,1.36-.14,1.98-.31.62-.84,1.08-1.49,1.3-.27.09-.55.14-.82.14Z"/>
        <path class="cls-2" d="M12.69,36.72c-.15,0-.3-.05-.42-.15-.73-.58-1.27-1.15-1.6-1.7-.73-1.2-2.31-2.09-2.32-2.1-.33-.18-.44-.6-.26-.92.18-.33.6-.44.92-.26.08.04,1.9,1.07,2.82,2.58.24.4.69.87,1.28,1.34.29.23.34.66.11.95-.13.17-.33.26-.53.26Z"/>
      </g>
      <path class="cls-2" d="M51.66,33.58c-.67,0-1.32-.34-1.68-.95l-6.81-11.29c-.56-.93-.26-2.14.67-2.69l1.98-1.2c.45-.27.98-.35,1.49-.23.51.13.94.44,1.21.89l6.81,11.29c.56.93.26,2.14-.67,2.7h0l-1.98,1.2c-.32.19-.67.28-1.01.28ZM46.82,18.52c-.11,0-.22.03-.31.09l-1.98,1.2c-.29.17-.38.54-.21.83l6.81,11.29c.17.29.55.38.83.21l1.98-1.2c.29-.17.38-.54.21-.83l-6.81-11.29c-.08-.14-.22-.24-.37-.27-.05-.01-.1-.02-.15-.02ZM54.3,31.51h0,0Z"/>
      <path class="cls-2" d="M30.4,28.75c-.23,0-.45-.12-.58-.33-.19-.32-.09-.74.23-.93l1.77-1.07c.32-.19.74-.09.93.23.19.32.09.74-.23.93l-1.77,1.07c-.11.07-.23.1-.35.1Z"/>
      <path class="cls-2" d="M24.3,28.38c-1.29,0-2.54-.66-3.24-1.82-.29-.49-.36-1.07-.2-1.61.17-.54.56-.99,1.07-1.23l6.92-3.19c.57-.26,1.2-.34,1.82-.22l7.06,1.38s3.58.71,5.46-.42c.32-.19.74-.09.93.23.19.32.09.74-.23.93-2.34,1.41-6.27.62-6.43.59l-7.05-1.38c-.34-.07-.68-.02-.99.12l-6.92,3.19c-.17.08-.29.22-.34.39-.05.18-.03.36.06.51.62,1.02,1.91,1.44,3,.98l3.45-1.46c.15-.06.32-.07.47-.02l3.21,1.01c.36.11.56.49.44.85-.11.36-.49.56-.85.44l-2.97-.93-3.22,1.36c-.47.2-.97.29-1.45.29Z"/>
      <path class="cls-2" d="M43.96,38.4c-.23,0-.45-.12-.58-.33-.19-.32-.09-.74.23-.93l.7-.42c.52-.36,1.91-1.47,2.41-2.45.79-1.58,2.53-2.75,2.6-2.8.31-.21.73-.13.94.19.21.31.13.73-.19.94-.02.01-1.52,1.03-2.14,2.28-.76,1.52-2.78,2.91-2.87,2.97-.01,0-.02.01-.03.02l-.72.43c-.11.07-.23.1-.35.1Z"/>
      <g>
        <path class="cls-2" d="M17.52,40.16c-.09,0-.17,0-.26-.01-.69-.07-1.31-.4-1.75-.93-.91-1.1-.75-2.74.36-3.64l1.88-1.54c.53-.44,1.21-.64,1.9-.58.69.07,1.31.4,1.75.93.91,1.1.75,2.74-.36,3.64l-1.88,1.54c-.47.38-1.04.59-1.64.59ZM19.39,34.8c-.28,0-.56.1-.78.28l-1.88,1.54c-.52.43-.6,1.21-.17,1.73.21.25.5.41.83.44.33.03.65-.07.9-.27l1.88-1.54h0c.52-.43.6-1.21.17-1.73-.21-.25-.5-.41-.83-.44-.04,0-.08,0-.12,0Z"/>
        <path class="cls-2" d="M19.32,43.62c-.75,0-1.49-.32-2-.94-.44-.53-.64-1.21-.58-1.9.07-.69.4-1.31.93-1.75l3.12-2.56c.53-.44,1.21-.64,1.9-.58.69.07,1.31.4,1.75.93.44.53.64,1.21.58,1.9-.07.69-.4,1.31-.93,1.75h0l-3.12,2.56c-.48.39-1.06.59-1.64.59ZM22.44,37.24c-.28,0-.56.1-.78.28l-3.12,2.56c-.25.21-.41.5-.44.83-.03.33.07.65.27.9.21.25.5.41.83.44.33.03.65-.07.9-.27l3.12-2.56c.25-.21.41-.5.44-.83.03-.33-.07-.65-.27-.9-.21-.25-.5-.41-.83-.44-.04,0-.08,0-.12,0ZM23.65,39.95h0,0Z"/>
        <path class="cls-2" d="M22.16,46.24c-.09,0-.17,0-.26-.01-.69-.07-1.31-.4-1.75-.93-.91-1.1-.75-2.74.36-3.64l2.3-1.89c1.1-.91,2.74-.75,3.64.36.44.53.64,1.21.58,1.9-.07.69-.4,1.31-.93,1.75l-2.3,1.89c-.47.38-1.04.59-1.64.59ZM24.45,40.53c-.28,0-.55.09-.78.28l-2.3,1.89c-.52.43-.6,1.21-.17,1.73.21.25.5.41.83.44.33.03.65-.06.9-.27l2.3-1.89h0c.25-.21.41-.5.44-.83.03-.33-.06-.65-.27-.9-.24-.3-.6-.45-.95-.45Z"/>
        <path class="cls-2" d="M24.79,49.02c-.09,0-.17,0-.26-.01-.69-.07-1.31-.4-1.75-.93-.44-.53-.64-1.21-.58-1.9.07-.69.4-1.31.93-1.75l1.88-1.54c.53-.44,1.21-.64,1.9-.58.69.07,1.31.4,1.75.93.44.53.64,1.21.58,1.9-.07.69-.4,1.31-.93,1.75l-1.88,1.54c-.47.38-1.04.59-1.64.59ZM26.66,43.65c-.28,0-.56.1-.78.28l-1.88,1.54c-.25.21-.41.5-.44.83-.03.33.07.65.27.9.21.25.5.41.83.44.33.03.65-.07.9-.27l1.88-1.54h0c.25-.21.41-.5.44-.83.03-.33-.06-.65-.27-.9s-.5-.41-.83-.44c-.04,0-.08,0-.12,0Z"/>
      </g>
    </g>
    <path class="cls-2" d="M24.77,17.48c-.16,0-.33-.06-.46-.18l-4.84-4.43c-.28-.25-.3-.68-.04-.96.25-.28.68-.3.96-.04l4.84,4.43c.28.25.3.68.04.96-.13.15-.32.22-.5.22Z"/>
    <path class="cls-2" d="M34.23,17.48c-.18,0-.37-.07-.5-.22-.25-.28-.23-.71.04-.96l4.84-4.43c.28-.25.71-.23.96.04.25.28.23.71-.04.96l-4.84,4.43c-.13.12-.29.18-.46.18Z"/>
    <path class="cls-2" d="M29.48,15.27c-.38,0-.68-.3-.68-.68v-7.48c0-.38.3-.68.68-.68s.68.3.68.68v7.48c0,.38-.3.68-.68.68Z"/>
    <rect class="cls-2" x="46.65" y="17.02" width="5.18" height="16.29" rx="1.44" ry="1.44" transform="translate(-5.91 29.17) rotate(-31.23)"/>
    <rect class="cls-2" x="6.01" y="17.36" width="5.18" height="16.29" rx="1.44" ry="1.44" transform="translate(4.23 52.07) rotate(-152.04)"/>
  </g>
</svg>