<?xml version="1.0" encoding="UTF-8"?>
<svg id="Layer_1" data-name="Layer 1" xmlns="http://www.w3.org/2000/svg" viewBox="0 0 58 58">
  <defs>
    <style>
      .cls-1 {
        fill: #eaf4ff;
      }

      .cls-2 {
        fill: #0040ff;
      }
    </style>
  </defs>
  <circle class="cls-1" cx="28.38" cy="29.67" r="28.4"/>
  <path class="cls-2" d="M40.87,11.53H15.9v4.75h8.82c3.28.54,5.74,1.87,6.74,3.63h-15.56v4.75h15.24c-.17.23-.36.45-.59.65-2.69,2.44-8.3,2.55-13.34,2.47h-.45s0,3.26,0,3.26l16.68,16.77h6.71l-15.43-15.52c2.9-.33,6.52-1.21,9-3.45,1.27-1.15,2.15-2.55,2.61-4.18h4.53v-4.75h-4.37c-.3-1.33-.89-2.54-1.78-3.63h6.15v-4.75Z"/>
</svg>